<?xml version="1.0" encoding="UTF-8"?>
<svg id="Layer_1" xmlns="http://www.w3.org/2000/svg" xmlns:xlink="http://www.w3.org/1999/xlink" version="1.1" viewBox="0 0 100 100">
  <!-- Generator: Adobe Illustrator 29.2.1, SVG Export Plug-In . SVG Version: 2.1.0 Build 116)  -->
  <defs>
    <style>
      .st0 {
        fill: #8f98a3;
        fill-rule: evenodd;
      }
    </style>
  </defs>
  <path class="st0" d="M50,0C22.4,0,0,22.4,0,50s22.4,50,50,50,50-22.4,50-50S77.6,0,50,0ZM76.2,37.1c1.8-.8,3.8,0,4.6,1.9.7,1.8,0,3.9-1.9,4.6h0c-1.8.7-3.8,0-4.5-1.9-.8-1.8,0-3.8,1.9-4.6h0ZM68.4,32.3c1.8-.7,3.8,0,4.6,1.9.7,1.8,0,3.8-1.9,4.6h0c-1.8.7-3.8,0-4.6-1.9-.7-1.8,0-3.8,1.9-4.6ZM58.8,34.7c1.8-.7,3.8,0,4.6,1.9.7,1.8,0,3.8-1.9,4.6h0c-1.8.7-3.8-.2-4.6-1.9-.8-1.8,0-3.8,1.8-4.6h.1ZM46.6,23.5l6.5.2-2.1,6.1s0,.1,0,.2l5.5-1.8-.3,6.7-5.3-2.7c0,0-.2.3-.4.4.6,1.8,1.7,4.2,2.8,6.1,1,1.2,1.3,2.9.7,4.5-.9,2.3-3.5,3.4-5.8,2.4-2.3-.9-3.3-3.5-2.4-5.8.8-1.8,2-5.2,2.5-7.2,0,0-.2-.2-.3-.3l-4.9,2.6-.3-6.7,5.3,1.6c0-.2.2-.3.4-.4l-2-6h0ZM35.8,37.1c.7-1.8,2.8-2.6,4.5-1.9,1.8.7,2.6,2.8,1.9,4.6-.8,1.8-2.8,2.6-4.6,1.9h0c-1.8-.8-2.6-2.8-1.9-4.6h0ZM27,34.2c.8-1.8,2.8-2.6,4.6-1.9,1.8.7,2.6,2.8,1.9,4.6-.8,1.8-2.8,2.6-4.6,1.9h0c-1.8-.7-2.6-2.8-1.9-4.5h0ZM19.1,39.2c.8-1.8,2.8-2.6,4.6-1.9,1.8.8,2.6,2.8,1.9,4.6h0c-.8,1.8-2.8,2.6-4.6,1.9-1.8-.7-2.6-2.8-1.8-4.5h-.1ZM16.8,48.2c.7-1.8,2.8-2.7,4.5-1.9,1.8.7,2.6,2.8,1.9,4.6h0c-.7,1.8-2.8,2.6-4.5,1.9-1.8-.7-2.6-2.8-1.9-4.5h0ZM73.6,72.5c-6.3-1.1-17.2-1.9-23.7-1.9s-17.4.6-23.7,1.7c-2-8.6-4.7-13.5-7.2-17l5-1.7c-.5,2.5-.6,3.6,0,5.2.8-.8,1.6-2.2,2.1-4.4l2.4,7.8c-1.4-1-2.5-1.6-3.8-1.6,2.3,4.8,5,6,6.8,5.7,2.2-.4,3.2-2.4,2.8-4.1-.5-2.3-2.9-3-4.1-.2-2.2-4.4,1.5-5.8,3.9-4.5-3.6-3.7-4.1-6.8-1.1-10.7,4.1,3.1,4.1,6.2,2.3,10.6,2.4-2.7,6.1-1.3,4.7,3.1-1.7-2.7-4-1-3.6,1.5.3,2.2,3.2,4,6.8,3.7,5.2-.5,5.5-4.1,5.6-7-1.3-.2-3.6,1-5.5,3.7l-.7-8.3c2.1,2.2,4.1,2.6,6.2,2.7-.7-2.2-4-5.9-4-5.9h10.4c0,0-3.3,3.8-4.1,6,2.1,0,4.1-.5,6.3-2.7l-.8,8.3c-2-2.8-4.3-4-5.5-3.8,0,3,.3,6.6,5.5,7,3.6.3,6.6-1.4,6.9-3.6.4-2.5-1.9-4.2-3.6-1.6-1.3-4.4,2.4-5.9,4.8-3.1-1.8-4.4-1.7-7.4,2.4-10.5,2.9,3.9,2.5,7.1-1.2,10.7,2.4-1.3,6,.2,3.8,4.5-1.1-2.7-3.6-2.2-4,.2-.4,1.7.6,3.7,2.8,4.1,1.8.3,4.6-.9,6.9-5.6-1.3,0-2.4.6-3.8,1.6l2.4-7.8c.6,2.2,1.3,3.7,2.1,4.4.6-1.6.5-2.7,0-5.2h0l4.9,1.8c-2.6,3.5-5.2,8.3-7.4,16.9h0ZM81.4,52.7c-1.8.8-3.8,0-4.6-1.8h0c-.8-1.8,0-3.9,1.9-4.6,1.8-.8,3.8,0,4.6,1.9.8,1.8,0,3.8-1.8,4.6h0Z"/>
</svg>